<mxfile host="app.diagrams.net" modified="2023-08-16T09:56:13.583Z" agent="Mozilla/5.0 (X11; Ubuntu; Linux x86_64; rv:109.0) Gecko/20100101 Firefox/116.0" version="21.6.8" etag="sNYvjJAE9OByufduMS-P" type="github">
  <diagram name="Strona-1" id="H4Jxd5jB7OnHSIXrGwEM">
    <mxGraphModel>
      <root>
        <mxCell id="0" />
        <mxCell id="1" parent="0" />
      </root>
    </mxGraphModel>
  </diagram>
</mxfile>
